<svg xmlns:xlink="http://www.w3.org/1999/xlink" width="128" height="128" viewBox="0 0 512 512" id="favicon-svg" xmlns="http://www.w3.org/2000/svg">
                <defs>
                    <linearGradient id="grad1" x1="0%" y1="0%" x2="100%" y2="100%">
                        <stop offset="0%" style="stop-color:#F4C6E4;stop-opacity:1"/>
                        <stop offset="100%" style="stop-color:#B4BFF8;stop-opacity:1"/>
                    </linearGradient>
                     <linearGradient id="grad2" x1="0%" y1="0%" x2="100%" y2="100%">
                        <stop offset="0%" style="stop-color:#D8B6F2;stop-opacity:1"/>
                        <stop offset="100%" style="stop-color:#83A2F2;stop-opacity:1"/>
                    </linearGradient>
                </defs>
                <g transform="rotate(20 256 256) scale(1.1)">
                    <path d="M346.5 142.2C365.2 153.5 371.1 178.5 360.1 197.4L301.6 301.6C290.6 320.5 265.8 326.6 247.1 315.3L140.3 255.7C121.6 244.4 115.7 219.4 126.7 200.5L185.2 96.3C196.2 77.4 221 71.3 239.7 82.6L346.5 142.2Z" fill="url(#grad2)" opacity="0.8"/>
                    <path d="M312.3 200.5C322.7 201.2 330.8 209.3 331.5 219.7L343.8 312.3C344.5 322.7 336.4 330.8 326 331.5L233.4 343.8C223 344.5 214.9 336.4 214.2 326L201.9 233.4C201.2 223 209.3 214.9 219.7 214.2L312.3 200.5Z" fill="url(#grad1)"/>
                </g>
            </svg>