<svg width="32" height="32" viewBox="0 0 32 32" fill="none" xmlns="http://www.w3.org/2000/svg">
  <defs>
    <linearGradient id="leafGradientDark" x1="0%" y1="0%" x2="100%" y2="100%">
      <stop offset="0%" style="stop-color:#34d399;stop-opacity:1" />
      <stop offset="50%" style="stop-color:#10b981;stop-opacity:1" />
      <stop offset="100%" style="stop-color:#059669;stop-opacity:1" />
    </linearGradient>
    <linearGradient id="stemGradientDark" x1="0%" y1="0%" x2="100%" y2="100%">
      <stop offset="0%" style="stop-color:#84cc16;stop-opacity:1" />
      <stop offset="100%" style="stop-color:#65a30d;stop-opacity:1" />
    </linearGradient>
  </defs>
  
  <!-- Main leaf shape -->
  <path d="M16 4C12 4 8 8 8 14C8 20 12 24 16 28C20 24 24 20 24 14C24 8 20 4 16 4Z" 
        fill="url(#leafGradientDark)" 
        opacity="0.95"/>
  
  <!-- Leaf vein/stem -->
  <path d="M16 6L16 26" 
        stroke="url(#stemGradientDark)" 
        stroke-width="1.5" 
        stroke-linecap="round"/>
  
  <!-- Side veins -->
  <path d="M16 10L12 14" 
        stroke="url(#stemGradientDark)" 
        stroke-width="0.8" 
        stroke-linecap="round" 
        opacity="0.8"/>
  <path d="M16 10L20 14" 
        stroke="url(#stemGradientDark)" 
        stroke-width="0.8" 
        stroke-linecap="round" 
        opacity="0.8"/>
  <path d="M16 16L13 19" 
        stroke="url(#stemGradientDark)" 
        stroke-width="0.6" 
        stroke-linecap="round" 
        opacity="0.6"/>
  <path d="M16 16L19 19" 
        stroke="url(#stemGradientDark)" 
        stroke-width="0.6" 
        stroke-linecap="round" 
        opacity="0.6"/>
  
  <!-- Subtle highlight -->
  <ellipse cx="14" cy="12" rx="2" ry="3" fill="rgba(255,255,255,0.3)" transform="rotate(-20 14 12)"/>
</svg>